<?xml version="1.0" standalone="no"?>
<!DOCTYPE svg PUBLIC "-//W3C//DTD SVG 20010904//EN"
 "http://www.w3.org/TR/2001/REC-SVG-20010904/DTD/svg10.dtd">
<svg version="1.0" xmlns="http://www.w3.org/2000/svg"
 width="1080.000000pt" height="1080.000000pt" viewBox="0 0 1080.000000 1080.000000"
 preserveAspectRatio="xMidYMid meet">
<metadata>
Created by potrace 1.16, written by Peter Selinger 2001-2019
</metadata>
<g transform="translate(0.000000,1080.000000) scale(0.100000,-0.100000)"
fill="#000000" stroke="none">
<path d="M1570 5400 l0 -1730 755 0 755 0 0 1730 0 1730 -755 0 -755 0 0
-1730z m970 -45 l0 -1575 -212 2 -213 3 -3 1573 -2 1572 215 0 215 0 0 -1575z"/>
<path d="M7580 5901 c0 -4 -19 -21 -42 -36 -99 -65 -318 -309 -373 -414 -10
-21 -25 -31 -51 -35 -44 -9 -84 -26 -84 -38 0 -4 18 -8 40 -8 22 0 40 -2 40
-5 0 -3 -20 -42 -44 -88 -66 -122 -108 -232 -104 -275 3 -31 9 -40 41 -57 45
-24 51 -18 61 55 9 65 56 200 100 288 l36 72 132 0 131 0 -7 -67 c-13 -133
-19 -281 -13 -305 7 -26 47 -48 115 -63 l32 -7 0 131 c0 251 67 606 141 753
l19 37 -33 19 c-27 17 -117 52 -132 52 -3 0 -5 -4 -5 -9z m-30 -148 c0 -12
-69 -295 -72 -298 -6 -5 -228 -14 -228 -9 0 3 19 32 41 66 84 123 259 286 259
241z"/>
<path d="M8176 5899 c-87 -13 -200 -46 -258 -75 -45 -23 -49 -28 -43 -52 4
-15 17 -41 30 -58 l24 -31 90 45 c50 25 93 43 96 40 12 -11 -52 -184 -171
-461 l-123 -290 19 -28 c23 -31 85 -73 98 -65 5 3 14 31 21 63 16 71 78 244
120 337 24 54 34 67 43 58 7 -7 22 -12 35 -12 19 0 25 -9 38 -57 41 -148 92
-290 119 -337 40 -66 73 -79 124 -49 55 32 61 47 30 80 -60 64 -197 314 -198
360 0 6 18 14 41 18 22 4 71 22 109 41 143 72 218 209 178 325 -44 128 -195
181 -422 148z m324 -101 c37 -19 47 -31 59 -66 12 -38 11 -49 -4 -87 -21 -57
-87 -115 -162 -144 -62 -24 -227 -50 -240 -38 -4 5 28 79 72 165 44 86 79 165
77 175 -1 15 8 17 76 17 61 0 88 -5 122 -22z"/>
<path d="M4563 5838 c-80 -128 -212 -514 -239 -700 -11 -78 3 -134 43 -179 19
-21 41 -39 47 -39 8 0 16 35 24 93 33 256 168 659 256 764 l25 30 -22 21 c-19
18 -86 52 -102 52 -2 0 -17 -19 -32 -42z"/>
<path d="M6961 5828 c-18 -48 -32 -139 -25 -160 4 -13 7 -28 6 -34 -2 -12 26
-40 32 -33 2 2 33 41 69 85 l66 82 -22 19 c-29 26 -66 49 -94 58 -18 5 -25 1
-32 -17z"/>
<path d="M5572 5711 c-22 -28 -55 -76 -72 -106 l-31 -55 -55 0 c-47 0 -54 -3
-54 -19 0 -38 11 -51 46 -51 l34 0 -24 -64 c-32 -84 -65 -202 -76 -273 -13
-76 6 -114 74 -154 28 -16 62 -29 76 -29 27 0 81 29 118 63 33 31 27 37 -17
15 -21 -10 -54 -21 -74 -25 -30 -4 -37 -2 -47 18 -27 50 3 199 76 373 l35 84
52 6 c78 10 97 17 97 32 0 10 -15 14 -56 14 l-56 0 23 38 c12 20 40 61 61 89
l38 53 -33 14 c-82 34 -92 32 -135 -23z"/>
<path d="M4793 5543 c-90 -140 -180 -401 -171 -495 5 -42 29 -88 47 -88 4 0
43 48 88 108 94 124 206 243 253 267 38 20 39 27 -5 -95 -62 -170 9 -281 139
-218 54 26 64 53 16 43 -38 -8 -60 8 -60 46 0 73 108 321 146 336 39 15 -14
73 -67 73 -67 0 -165 -79 -312 -250 -49 -58 -94 -107 -99 -109 -14 -5 17 65
69 154 92 159 95 165 89 190 -8 31 -63 95 -82 95 -8 0 -31 -26 -51 -57z"/>
<path d="M6382 5587 c-35 -44 -117 -261 -163 -433 l-31 -118 33 -28 c52 -43
63 -38 83 43 29 108 76 197 137 256 92 89 91 89 127 38 44 -62 65 -72 91 -39
17 21 19 35 14 92 -3 37 0 85 6 107 12 43 4 55 -36 55 -15 0 -36 -18 -67 -57
-66 -86 -166 -181 -166 -160 0 19 59 148 82 179 17 23 -2 43 -57 61 -33 12
-46 13 -53 4z"/>
<path d="M5974 5566 c-136 -63 -253 -247 -254 -398 0 -92 28 -141 102 -179 52
-27 84 -24 148 13 53 30 160 129 160 148 0 21 -28 8 -61 -26 -56 -59 -117 -94
-166 -94 -49 0 -63 17 -66 82 l-2 41 90 45 c124 63 186 126 214 217 30 96 28
110 -21 145 -50 36 -77 37 -144 6z m106 -97 c0 -41 -31 -99 -79 -151 -53 -58
-136 -116 -148 -104 -10 10 26 91 65 147 51 73 162 147 162 108z"/>
<path d="M6832 5497 c-38 -40 -74 -138 -100 -267 -27 -138 -25 -168 13 -206
36 -36 51 -31 58 20 10 68 96 292 134 349 40 59 37 70 -23 104 -49 28 -56 28
-82 0z"/>
</g>
</svg>
